<?xml version="1.0" standalone="no"?>
<!DOCTYPE svg PUBLIC "-//W3C//DTD SVG 20010904//EN"
 "http://www.w3.org/TR/2001/REC-SVG-20010904/DTD/svg10.dtd">
<svg version="1.0" xmlns="http://www.w3.org/2000/svg"
 width="2000.000000pt" height="1500.000000pt" viewBox="0 0 2000.000000 1500.000000"
 preserveAspectRatio="xMidYMid meet">

<g transform="translate(0.000000,1500.000000) scale(0.100000,-0.100000)"
fill="#000000" stroke="none">
<path d="M7807 12923 c-11 -10 -8 -51 3 -58 6 -3 10 -14 10 -24 0 -22 56 -76
93 -90 17 -7 129 -11 286 -11 219 0 260 -2 271 -15 14 -17 20 -10 -230 -271
-63 -66 -132 -141 -154 -165 -21 -24 -85 -92 -142 -151 -95 -98 -104 -110
-104 -145 0 -48 36 -111 79 -140 l34 -23 451 2 c422 3 451 4 454 21 6 32 -39
107 -81 135 l-40 27 -291 5 c-267 5 -291 6 -291 22 0 16 72 97 305 343 355
374 338 351 318 421 -5 18 -20 47 -35 64 -51 61 -42 60 -506 60 -233 0 -427
-3 -430 -7z"/>
<path d="M9180 12907 c-184 -56 -318 -190 -368 -367 -29 -101 -34 -165 -18
-243 40 -192 127 -317 280 -402 88 -48 155 -65 261 -65 248 0 446 144 532 387
22 61 24 237 4 308 -33 117 -114 236 -200 294 -120 82 -179 102 -311 107 -89
4 -116 1 -180 -19z m290 -193 c40 -15 101 -56 137 -90 7 -7 28 -41 48 -77 98
-179 25 -402 -163 -494 -51 -25 -68 -28 -157 -28 -96 0 -103 1 -165 36 -78 43
-139 113 -170 196 -31 83 -26 196 13 274 46 95 132 169 225 196 60 17 173 10
232 -13z"/>
<path d="M10425 12923 c-214 -48 -380 -212 -430 -426 -51 -214 46 -450 234
-576 54 -35 68 -42 136 -71 43 -18 219 -25 286 -11 118 25 245 104 314 196 86
115 115 204 115 351 0 162 -45 271 -159 384 -70 69 -159 121 -252 145 -50 14
-198 18 -244 8z m261 -219 c86 -43 129 -87 171 -171 34 -69 38 -84 37 -152 -1
-145 -73 -260 -202 -323 -61 -30 -74 -33 -162 -33 -84 0 -102 3 -152 28 -145
71 -233 249 -198 399 33 139 134 244 267 278 67 17 179 5 239 -26z"/>
<path d="M11185 12919 c-8 -12 -7 -1068 1 -1081 8 -12 51 -10 88 6 18 8 46 31
62 52 l29 37 5 327 5 326 36 49 c51 72 106 100 194 100 58 0 78 -5 117 -28 26
-15 59 -43 74 -62 50 -66 53 -88 54 -403 0 -322 3 -341 59 -382 39 -27 108
-39 115 -19 3 8 7 169 9 359 4 384 7 400 69 462 58 58 93 72 173 72 79 0 109
-12 168 -70 73 -71 71 -64 77 -414 4 -273 7 -319 22 -346 21 -38 94 -77 135
-72 l28 3 3 360 c2 334 1 365 -17 425 -59 194 -236 318 -440 308 -71 -3 -99
-10 -154 -35 -37 -18 -82 -46 -99 -62 -41 -38 -68 -39 -110 -3 -18 16 -64 44
-103 63 -65 32 -76 34 -170 34 -68 -1 -113 -6 -140 -17 -22 -9 -54 -22 -71
-28 -26 -11 -38 -10 -95 12 -84 33 -116 40 -124 27z"/>
<path d="M6610 12230 c0 -5 5 -10 10 -10 6 0 10 5 10 10 0 6 -4 10 -10 10 -5
0 -10 -4 -10 -10z"/>
<path d="M13860 12186 c0 -18 17 -29 30 -21 8 5 7 11 -1 21 -15 18 -29 18 -29
0z"/>
<path d="M6567 12123 c-23 -43 -21 -51 4 -19 11 14 19 32 16 39 -2 6 -11 -2
-20 -20z"/>
<path d="M6518 12058 c-20 -20 -23 -38 -8 -38 11 0 33 38 28 48 -2 5 -11 0
-20 -10z"/>
<path d="M6287 12063 c-10 -9 -8 -43 2 -43 5 0 11 11 13 25 5 24 -2 32 -15 18z"/>
<path d="M6470 11979 c0 -11 5 -17 10 -14 6 3 10 13 10 21 0 8 -4 14 -10 14
-5 0 -10 -9 -10 -21z"/>
<path d="M6401 11949 c-13 -39 -6 -52 19 -36 23 14 24 25 6 50 -13 16 -15 15
-25 -14z"/>
<path d="M14074 11948 c3 -13 6 -26 6 -29 0 -4 11 -6 24 -5 21 1 22 3 9 23 -8
12 -21 24 -30 27 -12 5 -14 1 -9 -16z"/>
<path d="M6333 11862 c-22 -20 -48 -52 -57 -69 -16 -33 -16 -33 8 -33 15 0 27
7 31 19 3 10 15 21 25 24 12 3 20 14 20 27 0 12 5 30 11 42 17 32 6 30 -38
-10z"/>
<path d="M6560 11869 c0 -5 5 -7 10 -4 6 3 10 8 10 11 0 2 -4 4 -10 4 -5 0
-10 -5 -10 -11z"/>
<path d="M14140 11871 c0 -6 5 -13 10 -16 6 -3 10 -17 10 -31 0 -13 4 -24 10
-24 5 0 7 -6 5 -12 -3 -7 7 -18 21 -25 26 -12 26 -12 19 25 -4 20 -13 44 -21
53 -8 8 -14 21 -14 27 0 7 -9 12 -20 12 -11 0 -20 -4 -20 -9z"/>
<path d="M6590 11840 c0 -5 5 -10 11 -10 5 0 7 5 4 10 -3 6 -8 10 -11 10 -2 0
-4 -4 -4 -10z"/>
<path d="M6390 11825 c0 -9 6 -12 15 -9 8 4 15 7 15 9 0 2 -7 5 -15 9 -9 3
-15 0 -15 -9z"/>
<path d="M14078 11803 c6 -2 18 -2 25 0 6 3 1 5 -13 5 -14 0 -19 -2 -12 -5z"/>
<path d="M13942 11783 c2 -9 8 -18 15 -20 7 -3 9 3 6 16 -6 25 -26 28 -21 4z"/>
<path d="M6435 11783 c-27 -4 -44 -17 -45 -34 0 -3 22 1 49 10 28 8 48 18 45
23 -3 4 -8 7 -12 7 -4 -1 -20 -4 -37 -6z"/>
<path d="M14015 11759 c-10 -16 -2 -20 49 -24 36 -4 46 -1 46 10 0 10 -10 14
-33 13 -19 -1 -39 2 -45 6 -6 3 -14 1 -17 -5z"/>
<path d="M14280 11703 c0 -44 14 -86 30 -90 22 -6 53 -65 44 -86 -3 -10 -1
-17 5 -17 6 0 19 -16 28 -35 10 -21 27 -38 46 -45 39 -13 37 -14 37 14 0 13
-16 43 -35 66 -19 23 -35 48 -35 56 0 8 -15 29 -34 47 -19 18 -46 50 -60 71
-20 30 -26 34 -26 19z"/>
<path d="M6181 11675 c-11 -20 -21 -43 -21 -51 0 -8 -4 -14 -10 -14 -14 0 -62
-51 -81 -85 -19 -34 -32 -105 -20 -105 5 0 14 7 21 15 7 8 19 15 26 15 8 0 14
9 14 20 0 12 16 37 36 56 23 24 34 43 32 58 -1 12 7 35 20 50 24 31 26 44 13
64 -6 10 -14 4 -30 -23z"/>
<path d="M14140 11665 c0 -5 55 -35 65 -35 3 0 5 5 5 10 0 6 -7 10 -15 10 -8
0 -15 5 -15 10 0 6 -9 10 -20 10 -11 0 -20 -2 -20 -5z"/>
<path d="M6240 11520 c-8 -5 -11 -12 -7 -16 4 -4 13 -2 19 4 15 15 7 24 -12
12z"/>
<path d="M5823 11513 c-7 -2 -13 -11 -13 -19 0 -8 -7 -14 -15 -14 -8 0 -15 -7
-15 -15 0 -21 4 -19 44 20 33 32 32 42 -1 28z"/>
<path d="M14228 11508 c-7 -16 18 -35 30 -23 3 3 0 5 -6 5 -6 0 -12 8 -14 18
-3 15 -4 16 -10 0z"/>
<path d="M6148 11487 c-38 -31 -35 -40 7 -20 19 9 35 23 35 30 0 18 -11 16
-42 -10z"/>
<path d="M14296 11461 c-4 -6 7 -17 23 -26 39 -20 43 -19 39 8 -2 15 -11 23
-30 25 -14 2 -29 -1 -32 -7z"/>
<path d="M14660 11461 c0 -6 9 -15 21 -21 18 -10 20 -9 17 7 -3 19 -38 32 -38
14z"/>
<path d="M5970 11353 c0 -9 -11 -28 -24 -42 -13 -15 -36 -60 -51 -101 -15 -41
-32 -79 -36 -84 -12 -13 -11 -36 1 -36 16 0 100 122 100 145 0 12 4 25 9 31
15 15 25 104 12 104 -6 0 -11 -8 -11 -17z"/>
<path d="M14500 11344 c0 -8 5 -25 12 -37 7 -12 22 -49 34 -82 16 -47 26 -61
43 -63 21 -3 22 -1 16 30 -4 18 -16 45 -26 60 -11 14 -19 33 -19 42 0 9 -7 19
-15 22 -8 4 -15 15 -15 25 0 10 -7 19 -15 19 -8 0 -15 -7 -15 -16z"/>
<path d="M5780 11314 c0 -8 5 -12 10 -9 6 3 10 10 10 16 0 5 -4 9 -10 9 -5 0
-10 -7 -10 -16z"/>
<path d="M6624 11277 c-3 -8 -4 -47 -2 -88 3 -65 5 -74 23 -77 45 -9 45 -4 45
-409 l0 -384 64 -65 64 -64 162 0 162 0 69 67 69 66 0 382 c0 402 0 398 45
407 18 3 20 11 20 88 l0 85 -155 0 -155 0 0 -80 0 -80 33 -14 32 -15 0 -356
c0 -264 -3 -359 -12 -368 -8 -8 -48 -12 -115 -12 l-102 0 -6 33 c-3 17 -4 182
-3 366 l3 334 30 17 c29 16 30 18 30 96 l0 79 -148 3 c-117 2 -148 0 -153 -11z"/>
<path d="M7477 11283 c-4 -3 -7 -41 -7 -84 l0 -77 35 -12 35 -12 0 -353 c0
-194 -3 -360 -6 -369 -3 -9 -14 -16 -24 -16 -31 0 -41 -25 -38 -97 l3 -68 155
0 155 0 3 73 c3 70 2 72 -25 84 -15 7 -31 17 -35 23 -9 12 -11 307 -2 329 10
25 22 19 40 -21 9 -21 20 -47 25 -58 5 -11 30 -69 55 -130 25 -60 64 -154 86
-208 l41 -98 136 3 136 3 0 74 c0 72 -1 75 -30 91 l-30 17 0 359 0 359 33 14
33 15 -3 80 -3 81 -155 0 -155 0 0 -79 c0 -78 1 -80 30 -96 l30 -17 3 -154 c4
-226 -6 -247 -58 -121 -37 89 -51 123 -74 174 -9 20 -16 39 -16 42 0 3 -11 29
-24 58 -13 29 -36 82 -50 117 -14 36 -32 68 -39 73 -15 9 -251 11 -260 1z"/>
<path d="M8374 11277 c-3 -8 -4 -45 -2 -82 3 -69 7 -76 51 -89 16 -5 17 -32
17 -371 0 -339 -1 -366 -17 -371 -45 -14 -48 -19 -48 -95 l0 -74 144 -3 c80
-1 148 1 153 6 4 4 10 38 14 74 l6 67 -39 18 -38 18 -3 357 -2 358 37 17 38
18 1 75 c1 44 -4 78 -10 82 -6 4 -75 8 -154 8 -111 0 -144 -3 -148 -13z"/>
<path d="M8812 11281 c-19 -12 -12 -151 8 -161 63 -29 57 -15 134 -355 68
-301 125 -540 132 -559 5 -13 22 -16 90 -16 78 0 85 2 94 23 11 26 36 135 125
547 37 168 68 312 71 321 2 8 19 22 37 30 l32 14 0 80 0 80 -119 3 c-78 2
-123 -1 -132 -9 -17 -14 -19 -102 -3 -163 11 -46 12 -42 -56 -346 -34 -149
-34 -150 -50 -150 -18 0 -27 30 -79 262 -35 158 -42 205 -35 235 10 44 12 134
3 157 -5 13 -26 16 -123 16 -64 0 -122 -4 -129 -9z"/>
<path d="M9667 11283 c-4 -3 -7 -41 -7 -83 0 -77 0 -78 30 -90 21 -9 31 -21
35 -44 3 -17 5 -179 3 -361 l-3 -330 -33 -14 -33 -15 3 -75 3 -76 301 -3 c281
-2 302 -1 306 15 9 33 7 269 -2 283 -10 17 -128 26 -149 12 -8 -6 -14 -32 -16
-64 -1 -31 -5 -60 -9 -67 -5 -7 -40 -11 -96 -11 -71 0 -89 3 -94 16 -12 31 -7
252 7 261 6 4 62 10 122 13 l110 5 3 74 c2 44 -1 78 -8 85 -7 7 -54 11 -116
11 -81 1 -107 4 -114 15 -15 23 -12 244 2 258 14 14 156 16 176 3 8 -5 15 -31
16 -65 2 -31 6 -59 9 -63 11 -10 150 -4 157 7 12 19 11 282 -1 297 -9 10 -71
13 -304 13 -160 0 -295 -3 -298 -7z"/>
<path d="M10401 11276 c-7 -9 -11 -41 -9 -82 3 -63 5 -68 33 -84 l30 -17 3
-362 2 -361 -27 -11 c-15 -6 -31 -16 -35 -22 -9 -15 -10 -74 -2 -116 l7 -32
151 3 151 3 3 76 3 75 -33 15 -33 14 -3 114 c-2 76 1 118 9 127 9 11 36 14
118 12 l106 -3 3 -128 c2 -115 1 -128 -15 -133 -42 -13 -48 -21 -51 -74 -6
-106 -14 -101 161 -98 l152 3 0 74 c0 76 -3 81 -47 95 -16 5 -18 21 -18 151 0
132 -2 150 -22 184 l-22 38 22 35 c20 33 22 48 22 202 l0 166 -42 47 c-24 26
-56 59 -72 75 l-29 28 -252 0 c-205 0 -255 -3 -264 -14z m467 -178 c17 -17 17
-284 0 -294 -21 -13 -210 -6 -220 8 -4 7 -8 72 -8 145 0 115 2 133 18 142 25
15 195 14 210 -1z"/>
<path d="M11318 11222 l-68 -69 0 -192 0 -193 67 -69 66 -69 143 0 c171 0 164
6 164 -135 0 -138 3 -135 -139 -135 -135 0 -131 -3 -131 85 0 39 -4 54 -16 59
-24 9 -100 7 -128 -4 -25 -9 -26 -12 -26 -95 l0 -85 68 -65 67 -65 170 0 171
0 67 68 67 68 0 168 0 169 -69 68 -69 69 -132 0 c-72 0 -140 5 -151 10 -17 10
-19 22 -19 143 0 90 4 137 12 145 14 14 215 17 237 3 9 -6 15 -36 18 -92 2
-46 6 -90 8 -97 4 -9 26 -12 82 -10 l78 3 3 117 3 118 -43 47 c-24 26 -56 59
-72 75 l-29 28 -165 0 -165 0 -69 -68z"/>
<path d="M11984 11277 c-3 -8 -4 -45 -2 -82 3 -64 5 -69 33 -85 l30 -17 3
-344 c1 -189 0 -354 -3 -366 -3 -14 -13 -23 -24 -23 -32 0 -42 -24 -39 -97 l3
-68 155 0 155 0 3 68 c3 73 -7 97 -39 97 -10 0 -23 8 -28 18 -14 26 -15 686
-1 712 6 11 19 20 28 20 33 0 42 22 42 96 0 56 -3 73 -16 78 -9 3 -78 6 -155
6 -108 0 -141 -3 -145 -13z"/>
<path d="M12422 11281 c-11 -6 -13 -41 -10 -154 2 -80 6 -149 10 -152 13 -13
151 -7 159 7 5 7 9 36 9 65 0 41 4 53 19 58 35 11 48 -4 54 -65 9 -78 3 -652
-6 -666 -3 -6 -20 -14 -37 -18 l-31 -6 3 -77 3 -78 144 -3 c80 -1 148 1 152 5
4 4 10 39 13 76 l5 68 -33 14 c-45 19 -47 39 -45 387 2 324 4 354 29 361 30 8
41 -7 45 -63 2 -29 7 -56 12 -61 9 -8 65 -13 126 -10 l38 1 -3 158 -3 157
-320 2 c-176 2 -326 -1 -333 -6z"/>
<path d="M13207 11284 c-4 -4 -7 -41 -7 -81 0 -72 1 -74 30 -91 23 -13 36 -34
56 -87 14 -38 30 -79 34 -90 20 -45 60 -146 96 -240 32 -86 38 -114 42 -202
l4 -102 -31 -29 c-31 -28 -32 -31 -29 -98 l3 -69 132 -3 c118 -2 133 -1 141
15 14 26 9 136 -6 141 -35 11 -42 33 -42 138 0 109 11 148 91 321 10 24 19 49
19 56 0 7 4 17 9 22 5 6 19 35 31 65 47 122 62 147 94 161 l31 14 0 80 0 80
-130 0 -130 0 -3 -83 c-2 -45 1 -90 6 -99 7 -11 3 -35 -13 -77 -44 -116 -75
-178 -88 -174 -15 5 -58 92 -87 176 -20 59 -21 65 -5 82 12 14 15 35 13 96
l-3 79 -126 3 c-69 1 -128 -1 -132 -4z"/>
<path d="M6100 11270 c-18 -12 -2 -12 25 0 13 6 15 9 5 9 -8 0 -22 -4 -30 -9z"/>
<path d="M6057 11221 c3 -12 9 -21 14 -21 14 0 11 16 -5 29 -12 10 -13 8 -9
-8z"/>
<path d="M14355 11230 c4 -6 11 -8 16 -5 14 9 11 15 -7 15 -8 0 -12 -5 -9 -10z"/>
<path d="M14400 11205 c0 -9 6 -12 15 -9 8 4 15 10 15 15 0 5 -7 9 -15 9 -8 0
-15 -7 -15 -15z"/>
<path d="M6025 11180 c-3 -5 -2 -10 4 -10 5 0 13 5 16 10 3 6 2 10 -4 10 -5 0
-13 -4 -16 -10z"/>
<path d="M14405 11163 c11 -3 25 -9 31 -14 6 -5 19 -6 29 -3 25 10 -2 24 -45
23 -21 -1 -27 -3 -15 -6z"/>
<path d="M14560 11090 c0 -12 9 -30 20 -42 11 -12 20 -17 20 -10 0 6 -5 14
-10 17 -6 4 -10 12 -9 18 3 24 -1 37 -11 37 -5 0 -10 -9 -10 -20z"/>
<path d="M5895 11079 c-11 -16 -1 -19 13 -3 7 8 8 14 3 14 -5 0 -13 -5 -16
-11z"/>
<path d="M5825 10790 c-3 -5 -1 -10 4 -10 6 0 11 5 11 10 0 6 -2 10 -4 10 -3
0 -8 -4 -11 -10z"/>
<path d="M5890 10750 c0 -5 7 -10 15 -10 8 0 15 5 15 10 0 6 -7 10 -15 10 -8
0 -15 -4 -15 -10z"/>
<path d="M5492 10730 c0 -14 2 -19 5 -12 2 6 2 18 0 25 -3 6 -5 1 -5 -13z"/>
<path d="M5657 10733 c-15 -4 -18 -12 -15 -35 3 -19 0 -32 -9 -35 -7 -3 -13
-13 -13 -23 0 -11 -4 -22 -10 -25 -5 -3 -10 -15 -10 -25 0 -24 -41 -110 -52
-110 -12 0 -10 -28 3 -36 6 -4 24 8 40 27 16 19 36 34 46 34 9 0 18 6 21 13 2
7 -2 10 -12 6 -11 -4 -16 0 -16 14 0 27 15 35 39 22 13 -7 22 -7 26 0 3 5 -3
10 -14 10 -27 0 -41 58 -17 75 9 7 16 22 16 34 0 12 6 21 15 21 8 0 15 4 15 8
0 10 -22 32 -29 31 -4 -1 -14 -3 -24 -6z"/>
<path d="M14580 10720 c0 -5 7 -10 15 -10 8 0 15 5 15 10 0 6 -7 10 -15 10 -8
0 -15 -4 -15 -10z"/>
<path d="M14822 10696 c-9 -20 -7 -27 8 -41 10 -9 21 -33 25 -53 4 -20 15 -42
26 -50 20 -14 26 -47 9 -57 -10 -6 33 -75 56 -88 25 -14 16 37 -11 67 -14 15
-25 39 -25 55 0 15 -9 46 -20 69 -11 22 -20 54 -20 70 0 26 -15 52 -30 52 -4
0 -12 -11 -18 -24z"/>
<path d="M5810 10696 c0 -9 7 -16 16 -16 17 0 14 22 -4 28 -7 2 -12 -3 -12
-12z"/>
<path d="M5775 10667 c-4 -10 -5 -21 -1 -24 10 -10 18 4 13 24 -4 17 -4 17
-12 0z"/>
<path d="M14640 10661 c0 -10 30 -24 37 -17 3 3 2 9 -2 15 -8 13 -35 15 -35 2z"/>
<path d="M5818 10633 c7 -3 16 -2 19 1 4 3 -2 6 -13 5 -11 0 -14 -3 -6 -6z"/>
<path d="M14705 10630 c-3 -5 -1 -10 4 -10 6 0 11 5 11 10 0 6 -2 10 -4 10 -3
0 -8 -4 -11 -10z"/>
<path d="M14991 10614 c0 -11 3 -14 6 -6 3 7 2 16 -1 19 -3 4 -6 -2 -5 -13z"/>
<path d="M5710 10589 c0 -5 5 -7 10 -4 6 3 10 8 10 11 0 2 -4 4 -10 4 -5 0
-10 -5 -10 -11z"/>
<path d="M14795 10480 c4 -6 11 -8 16 -5 14 9 11 15 -7 15 -8 0 -12 -5 -9 -10z"/>
<path d="M5490 10262 c0 -11 -4 -24 -10 -27 -5 -3 -10 -18 -10 -33 0 -15 -7
-40 -15 -56 -8 -15 -15 -36 -15 -46 0 -10 -6 -20 -12 -23 -10 -3 -10 -7 1 -20
8 -10 9 -17 3 -17 -6 0 -18 -14 -26 -31 -15 -31 -14 -49 4 -49 10 0 51 55 54
73 1 7 7 22 14 34 7 12 12 31 12 42 0 11 3 22 8 25 9 6 9 133 -1 142 -4 4 -7
-2 -7 -14z"/>
<path d="M15000 10244 c0 -8 5 -12 10 -9 6 3 10 10 10 16 0 5 -4 9 -10 9 -5 0
-10 -7 -10 -16z"/>
<path d="M5635 10220 c-3 -5 1 -10 9 -10 9 0 16 5 16 10 0 6 -4 10 -9 10 -6 0
-13 -4 -16 -10z"/>
<path d="M15005 10200 c-9 -15 17 -80 32 -80 15 0 17 16 3 25 -5 3 -10 19 -10
36 0 29 -13 39 -25 19z"/>
<path d="M15020 10090 c-21 -16 -22 -18 -5 -27 11 -6 16 -17 12 -26 -4 -10 2
-17 15 -20 14 -4 18 -11 14 -24 -3 -10 4 -33 17 -53 l22 -35 3 34 c2 18 -1 38
-7 44 -6 6 -11 21 -11 33 0 13 -5 26 -10 29 -6 3 -7 17 -4 29 7 31 -15 39 -46
16z"/>
<path d="M5510 10008 c0 -9 5 -20 10 -23 13 -8 13 5 0 25 -8 13 -10 13 -10 -2z"/>
<path d="M15275 9880 c27 -12 43 -12 25 0 -8 5 -22 9 -30 9 -10 0 -8 -3 5 -9z"/>
<path d="M5345 9778 c-2 -13 -7 -54 -9 -91 -3 -38 -8 -85 -12 -104 -9 -49 9
-35 25 19 7 24 22 60 32 81 14 28 16 44 9 57 -6 10 -10 28 -10 39 0 28 -28 27
-35 -1z"/>
<path d="M15124 9755 c-9 -35 1 -112 21 -165 16 -42 20 -83 13 -139 -2 -14 4
-28 14 -34 20 -13 24 -10 33 26 5 20 3 27 -7 27 -10 0 -15 14 -17 43 -2 43 -5
83 -17 200 -7 70 -27 92 -40 42z"/>
<path d="M7712 9602 c-18 -18 -28 -90 -63 -442 -6 -58 -14 -134 -19 -170 -65
-478 -74 -602 -75 -955 0 -311 6 -397 46 -690 47 -346 157 -837 246 -1095 69
-204 193 -472 293 -635 22 -36 40 -68 40 -70 0 -10 145 -243 208 -335 142
-205 315 -406 565 -653 180 -179 209 -217 163 -217 -7 0 -27 -7 -42 -15 -43
-22 -84 -18 -155 14 -35 16 -134 59 -219 96 -143 62 -201 89 -455 210 -49 24
-126 60 -170 80 -44 21 -97 49 -117 61 -43 27 -220 122 -258 138 -72 32 -222
113 -284 155 -39 27 -116 76 -171 110 -55 34 -120 78 -145 98 -79 62 -123 97
-155 124 -16 14 -45 35 -62 48 -20 13 -33 31 -33 43 0 12 22 54 49 93 27 40
52 82 56 95 10 31 -41 103 -139 192 -196 181 -437 436 -526 558 -14 18 -34 45
-46 59 -11 14 -36 49 -54 76 -44 65 -55 75 -78 75 -31 0 -49 -31 -57 -100 -4
-36 -11 -96 -16 -135 -5 -38 -12 -152 -15 -252 -4 -127 -10 -183 -18 -186 -10
-4 -273 75 -341 103 -36 14 -79 28 -138 45 -54 15 -61 15 -83 0 -51 -33 -46
-48 61 -171 41 -47 87 -102 102 -122 16 -20 30 -39 33 -42 3 -3 27 -32 54 -65
100 -125 209 -241 329 -349 86 -78 90 -88 53 -160 -14 -28 -22 -56 -18 -69 8
-34 262 -281 407 -396 72 -57 148 -121 170 -141 73 -67 329 -252 515 -372 52
-33 131 -85 175 -114 44 -29 112 -68 150 -88 39 -20 93 -50 120 -66 57 -35
223 -116 275 -135 19 -7 96 -42 170 -78 141 -68 277 -125 345 -145 159 -46
348 -106 391 -123 45 -18 52 -25 68 -68 47 -131 164 -200 391 -229 154 -20
754 -52 985 -52 315 0 964 39 1099 66 96 19 188 62 230 105 17 19 46 64 63
100 l31 66 126 41 c69 22 160 50 201 62 93 26 185 57 225 75 17 7 53 22 80 33
28 11 105 48 172 81 68 34 126 61 130 61 17 0 250 114 315 155 40 25 76 45 80
45 5 0 38 18 74 40 36 22 68 40 70 40 3 0 105 67 227 148 236 157 384 265 508
372 42 36 105 87 140 115 164 127 403 360 415 402 4 14 -3 41 -20 75 -14 28
-26 58 -26 65 0 7 33 44 72 81 129 119 237 234 328 347 35 44 67 82 70 85 3 3
19 23 36 45 16 22 38 49 49 61 75 78 135 159 135 180 0 11 -12 27 -26 38 -31
22 -29 23 -358 -87 -169 -57 -210 -67 -217 -56 -5 8 -9 79 -9 159 -1 137 -6
216 -29 404 -10 82 -24 106 -63 106 -11 0 -45 -38 -90 -97 -64 -87 -144 -189
-158 -203 -3 -3 -55 -61 -117 -130 -105 -119 -220 -234 -344 -346 -77 -69
-129 -139 -129 -173 0 -17 14 -47 35 -74 19 -25 35 -49 35 -54 0 -4 9 -19 20
-33 11 -14 20 -30 20 -36 0 -10 -79 -77 -260 -219 -77 -60 -144 -104 -247
-161 -26 -15 -69 -43 -96 -62 -27 -19 -139 -81 -250 -137 -111 -56 -222 -114
-246 -129 -23 -15 -95 -52 -160 -83 -64 -30 -152 -72 -196 -93 -236 -113 -312
-148 -335 -155 -14 -4 -50 -20 -81 -35 -30 -16 -102 -47 -159 -70 -57 -22
-109 -45 -116 -51 -15 -12 -173 47 -181 68 -3 7 59 74 137 150 255 247 547
620 768 983 94 155 246 455 317 625 7 17 20 46 28 65 37 84 96 260 131 390 24
91 35 136 77 335 21 98 60 325 78 445 6 41 13 91 16 110 42 264 55 826 25
1100 -32 292 -52 446 -80 620 -5 30 -14 87 -20 125 -23 144 -41 204 -68 226
-32 25 -53 21 -201 -38 -140 -55 -210 -75 -371 -104 -117 -21 -153 -23 -575
-23 -330 -1 -474 3 -540 13 -286 43 -437 86 -624 181 -98 49 -150 52 -272 15
-163 -48 -295 -83 -361 -94 -234 -38 -276 -43 -813 -81 -428 -30 -692 8 -1061
156 -123 49 -146 52 -172 26z m2518 -1424 c0 -856 -3 -1276 -10 -1289 -10 -19
-34 -19 -1179 -19 l-1169 0 -12 33 c-14 41 -63 285 -89 447 -45 283 -54 403
-54 730 1 305 4 359 44 690 5 41 13 116 19 165 5 50 16 146 25 215 8 69 15
146 15 172 0 57 7 78 27 78 8 0 58 -16 109 -35 370 -139 690 -156 1484 -79
305 30 550 85 720 162 32 15 48 18 57 10 10 -8 13 -261 13 -1280z m2329 -1352
c8 -10 5 -39 -15 -117 -90 -368 -276 -780 -536 -1189 -101 -160 -128 -198
-313 -436 -172 -222 -440 -493 -645 -650 -107 -82 -266 -189 -409 -275 l-125
-74 -125 0 -126 0 -3 1365 c-1 751 0 1371 3 1378 7 19 2278 18 2294 -2z
m-6351 -406 c73 -103 214 -263 400 -452 69 -71 129 -128 133 -128 14 0 32 -41
22 -51 -5 -5 -41 -1 -89 11 -46 12 -116 21 -166 22 -85 2 -89 1 -119 -28 -45
-43 -127 -176 -176 -284 -23 -52 -49 -99 -57 -104 -10 -7 -31 5 -77 45 -109
95 -258 241 -286 283 -39 56 -52 73 -103 130 -98 108 -115 136 -87 136 7 0 71
-23 142 -51 117 -46 286 -89 350 -89 43 0 47 26 35 194 -9 112 -9 186 -1 280
15 174 16 175 79 86z m8127 -128 c4 -86 5 -200 1 -252 -9 -113 -9 -128 -1
-158 6 -23 9 -24 68 -17 104 12 242 49 332 90 68 30 125 48 132 41 11 -11 -11
-44 -68 -103 -30 -32 -76 -87 -101 -123 -66 -92 -355 -370 -386 -370 -7 0 -24
26 -38 58 -65 151 -174 328 -216 350 -40 22 -240 8 -339 -23 -31 -10 -29 23 4
52 124 110 415 428 531 581 66 87 72 78 81 -126z m-7815 -628 c121 -124 510
-428 710 -555 58 -37 119 -76 135 -87 143 -96 507 -284 965 -499 83 -39 106
-50 200 -91 161 -70 311 -137 348 -154 44 -20 54 -45 28 -67 -7 -6 -17 -28
-21 -49 -4 -20 -11 -57 -16 -82 -23 -114 -34 -201 -55 -427 -4 -46 -11 -83
-16 -83 -40 0 -404 120 -541 179 -53 22 -99 41 -101 41 -2 0 -48 21 -102 46
-55 25 -144 67 -199 92 -249 116 -442 222 -596 328 -41 28 -108 71 -149 95
-86 51 -260 176 -383 277 -29 23 -115 93 -192 155 -77 63 -193 165 -257 228
-119 115 -131 135 -109 177 14 24 102 212 140 297 41 90 131 225 151 225 9 0
36 -21 60 -46z m7536 -10 c21 -32 42 -62 46 -68 10 -14 162 -333 183 -382 8
-20 15 -46 15 -58 -1 -36 -163 -193 -385 -371 -60 -48 -130 -107 -155 -129
-65 -60 -307 -233 -433 -310 -60 -36 -134 -85 -165 -108 -130 -96 -493 -280
-912 -460 -194 -84 -575 -208 -590 -191 -4 4 -11 51 -14 103 -10 153 -24 262
-56 420 -6 34 -22 69 -40 92 -16 20 -28 43 -25 50 3 7 22 21 43 30 88 41 332
148 337 148 6 0 98 41 215 97 52 25 136 65 185 88 124 58 438 215 508 253 31
18 83 46 115 63 59 32 151 88 308 188 207 132 510 369 674 528 41 40 82 73 91
73 9 0 34 -25 55 -56z m-4911 -1544 c61 -11 175 -29 253 -40 79 -11 147 -22
152 -25 41 -25 946 -38 1130 -16 47 5 137 15 200 21 171 16 314 36 505 72 33
6 73 12 90 12 28 1 30 -2 37 -44 44 -285 49 -434 19 -577 -11 -51 -26 -101
-33 -112 -14 -24 -144 -85 -221 -105 -30 -8 -88 -19 -128 -24 -231 -32 -347
-37 -929 -37 -615 0 -765 8 -987 50 -79 15 -233 77 -256 103 -14 17 -26 48
-46 128 -23 89 -6 503 25 608 7 21 9 21 189 -14z"/>
<path d="M8460 8700 c-11 -7 -6 -498 6 -510 10 -10 264 -1 264 10 0 8 -99 20
-160 20 -25 0 -43 7 -56 21 -17 19 -19 38 -19 204 0 132 3 186 13 197 11 13
66 16 413 17 l400 1 10 -28 c6 -15 9 -78 7 -142 l-3 -115 -60 -94 c-33 -51
-82 -125 -108 -164 -147 -219 -197 -296 -197 -304 0 -4 11 -13 25 -19 20 -10
27 -9 41 8 16 17 31 19 140 17 84 -1 129 -5 141 -14 16 -12 18 -34 21 -202 2
-153 0 -192 -12 -208 -14 -19 -26 -20 -405 -20 -361 0 -392 1 -408 18 -15 15
-19 39 -22 142 -3 119 -2 127 22 167 14 24 36 54 48 67 13 14 57 81 99 150 42
69 83 136 90 148 22 34 3 40 -22 7 -27 -34 -128 -186 -128 -192 0 -3 -19 -28
-43 -56 -105 -125 -101 -114 -104 -255 -3 -165 -3 -223 3 -232 2 -4 210 -7
462 -6 l457 2 0 255 0 255 -160 0 c-88 0 -166 4 -172 8 -19 12 -16 41 6 61 11
10 22 28 25 42 4 13 13 24 20 24 18 0 62 52 106 124 19 32 62 95 96 140 33 44
66 91 72 103 13 24 17 352 5 354 -30 4 -907 3 -913 -1z"/>
<path d="M8553 8619 c-17 -17 -18 -324 -2 -334 5 -4 46 -4 90 0 78 7 79 7 79
35 0 15 10 42 23 60 l22 32 128 3 c77 2 130 -1 133 -7 9 -14 24 -81 16 -74 -3
3 -30 -31 -59 -76 -30 -46 -74 -103 -97 -128 -24 -25 -60 -72 -81 -105 -79
-125 -90 -141 -125 -180 -37 -41 -106 -141 -128 -185 -8 -17 -12 -59 -10 -125
l3 -100 370 0 370 0 3 156 c3 189 6 184 -103 174 -41 -4 -75 -10 -76 -13 0 -4
-2 -28 -3 -54 -1 -26 -6 -52 -11 -57 -6 -5 -75 -11 -154 -12 -113 -2 -145 1
-152 12 -12 19 -11 49 0 49 5 0 13 9 16 20 3 11 12 26 20 33 7 8 28 38 46 68
18 30 45 70 61 90 15 20 28 42 28 47 0 6 13 20 29 31 28 20 76 86 131 180 14
24 53 77 88 119 35 43 68 87 73 100 14 35 11 215 -3 235 -12 15 -22 16 -103 6
-87 -11 -510 -6 -580 7 -18 3 -35 0 -42 -7z"/>
<path d="M8790 8230 c-6 -11 -20 -20 -31 -20 -12 0 -17 -4 -14 -11 4 -6 14 -8
22 -5 9 4 17 -1 20 -14 6 -23 8 -24 34 -10 16 9 49 58 49 75 0 3 -16 5 -35 5
-24 0 -37 -6 -45 -20z"/>
<path d="M8933 7753 c-3 -10 -8 -21 -10 -25 -2 -5 7 -8 20 -8 20 0 23 4 19 25
-5 29 -20 33 -29 8z"/>
<path d="M10588 6426 c-11 -19 -4 -347 7 -366 3 -5 18 -10 33 -10 55 0 53 11
53 -373 l-1 -356 28 -25 c15 -13 66 -61 114 -107 48 -45 92 -85 97 -88 5 -4
103 -5 216 -4 162 2 212 5 228 17 44 29 217 204 225 227 5 13 8 83 6 154 -10
353 -10 506 0 527 6 12 27 27 46 33 26 9 36 19 40 41 9 44 6 331 -3 341 -5 4
-249 8 -544 8 -511 0 -535 -1 -545 -19z m508 -41 c12 -7 25 -29 29 -47 l9 -33
3 37 c3 23 11 42 21 47 26 14 451 6 465 -8 13 -13 20 -193 11 -244 -4 -19 -16
-32 -40 -42 -19 -8 -34 -18 -35 -22 -1 -4 -2 -165 -3 -358 -3 -405 7 -366
-116 -481 -118 -111 -98 -104 -310 -104 l-186 0 -44 41 c-161 148 -180 170
-181 208 0 20 -2 177 -4 350 -4 285 -6 315 -22 333 -10 11 -28 24 -40 29 -25
9 -24 8 -28 174 -1 68 8 114 25 125 4 3 102 6 217 7 163 2 213 -1 229 -12z"/>
<path d="M10685 6350 c-11 -12 -15 -40 -15 -108 0 -80 2 -93 19 -102 11 -5 28
-10 39 -10 44 0 45 -11 43 -398 -1 -355 -1 -370 19 -394 11 -14 30 -28 42 -32
13 -3 35 -23 50 -45 45 -64 72 -71 266 -71 l170 0 27 32 c15 18 37 37 48 43
11 5 40 34 64 63 l44 54 -3 376 -3 377 40 5 c47 6 53 19 54 131 1 53 -3 80
-13 88 -16 13 -344 4 -362 -11 -12 -9 -12 -111 1 -159 4 -16 19 -32 38 -41
l32 -15 2 -244 c1 -134 2 -300 3 -367 2 -71 -2 -128 -8 -134 -11 -11 -223 -22
-258 -14 -12 3 -25 14 -30 23 -4 10 -9 135 -10 278 -1 143 -5 297 -8 341 -5
76 -4 84 19 108 13 14 31 26 38 26 20 0 22 12 22 108 0 61 -4 85 -14 92 -8 4
-62 6 -120 3 -58 -3 -132 -1 -163 5 -49 8 -60 6 -73 -8z"/>
<path d="M11130 6095 c0 -8 7 -15 15 -15 9 0 12 6 9 15 -4 8 -10 15 -15 15 -5
0 -9 -7 -9 -15z"/>
<path d="M11180 6053 c0 -4 5 -15 10 -23 8 -13 10 -13 10 2 0 9 -4 20 -10 23
-5 3 -10 3 -10 -2z"/>
<path d="M11061 5754 c0 -11 3 -14 6 -6 3 7 2 16 -1 19 -3 4 -6 -2 -5 -13z"/>
<path d="M11061 5654 c0 -11 3 -14 6 -6 3 7 2 16 -1 19 -3 4 -6 -2 -5 -13z"/>
<path d="M6609 5388 c-26 -7 -42 -19 -55 -43 -16 -31 -17 -39 -5 -87 8 -29 22
-70 32 -90 22 -42 25 -98 7 -116 -27 -27 -100 -3 -133 46 -12 16 -20 59 -25
135 0 4 -8 7 -18 7 -18 0 -42 -48 -42 -86 0 -30 25 -92 46 -117 43 -49 134
-78 186 -58 16 6 37 25 48 43 20 33 27 106 12 124 -17 18 -52 117 -52 145 0
40 28 53 73 34 37 -15 81 -61 92 -96 4 -12 13 -19 23 -17 29 6 20 74 -14 110
-63 66 -110 84 -175 66z"/>
<path d="M6879 5062 c-46 -44 -109 -101 -139 -126 -52 -45 -68 -75 -44 -83 6
-2 28 10 49 27 21 16 41 30 46 30 4 0 24 -15 45 -34 l37 -33 -13 -50 c-22 -84
7 -112 43 -42 15 31 40 114 87 290 15 56 10 93 -11 97 -10 2 -52 -30 -100 -76z
m35 -60 c7 -11 -20 -86 -32 -90 -11 -3 -42 25 -42 38 0 11 51 60 62 60 4 0 9
-4 12 -8z"/>
<path d="M7177 4962 c-23 -28 -193 -285 -200 -306 -12 -30 53 -81 128 -100 79
-20 75 -20 75 2 0 18 -16 29 -77 52 -17 6 -39 21 -49 31 -17 19 -16 22 24 79
23 32 42 62 42 65 0 8 44 69 53 73 4 2 7 8 7 14 0 5 9 21 20 35 11 14 20 34
20 43 0 25 -25 32 -43 12z"/>
<path d="M7389 4813 c-25 -30 -65 -97 -99 -163 -30 -59 -32 -70 -27 -133 4
-60 8 -72 32 -93 31 -26 92 -32 140 -14 42 16 112 88 166 170 53 81 64 130 29
130 -13 0 -38 -27 -79 -87 -74 -108 -79 -113 -118 -141 -43 -30 -88 -29 -109
3 -22 33 -13 114 16 154 11 16 20 32 20 34 0 3 18 35 41 71 22 36 38 70 34 76
-9 15 -30 12 -46 -7z"/>
<path d="M7726 4606 c-44 -41 -47 -75 -10 -157 33 -74 28 -121 -17 -144 -38
-20 -72 -4 -103 51 -29 53 -50 51 -54 -4 -7 -100 100 -158 199 -107 62 32 80
155 34 230 -14 22 -25 48 -25 57 0 26 28 48 61 48 23 0 31 -6 43 -35 16 -37
25 -42 44 -23 20 20 14 67 -13 93 -19 20 -34 25 -74 25 -43 0 -55 -5 -85 -34z"/>
<path d="M8211 4352 c-23 -33 -100 -194 -126 -265 -13 -33 -15 -51 -8 -58 19
-19 47 -5 65 31 76 155 128 275 128 296 0 34 -33 32 -59 -4z"/>
<path d="M8380 4268 c-11 -18 -20 -39 -20 -46 0 -7 -4 -20 -10 -30 -24 -44
-90 -196 -90 -208 0 -7 4 -15 9 -18 20 -13 42 9 81 84 22 44 45 82 50 85 15 9
61 -117 90 -240 6 -27 17 -56 25 -64 22 -22 56 -1 82 50 53 105 134 301 131
317 -2 9 -13 18 -25 20 -27 4 -60 -44 -99 -143 -28 -71 -41 -95 -53 -95 -4 0
-20 33 -35 73 -15 39 -31 80 -36 89 -6 10 -10 36 -10 58 0 52 -24 100 -50 100
-12 0 -28 -13 -40 -32z"/>
<path d="M13716 5270 c-85 -26 -136 -159 -85 -224 24 -31 62 -34 134 -9 47 16
49 16 66 -6 27 -33 -5 -97 -63 -127 -26 -14 -37 -14 -75 -3 -37 10 -46 10 -53
-1 -25 -41 52 -89 121 -76 68 12 160 116 159 178 -1 45 -33 92 -73 107 -35 13
-44 13 -92 -4 -68 -23 -90 -16 -81 26 9 45 37 78 79 90 41 13 48 33 18 49 -11
5 -21 10 -23 9 -2 0 -16 -5 -32 -9z"/>
<path d="M13383 5003 c-21 -8 -15 -44 13 -81 15 -19 57 -80 94 -137 64 -97 90
-122 111 -109 13 8 11 41 -3 66 -14 23 -98 146 -145 211 -30 42 -51 57 -70 50z"/>
<path d="M13180 4860 c-9 -17 -5 -31 21 -78 70 -125 89 -166 89 -198 0 -48 -9
-64 -38 -64 -41 0 -104 58 -170 157 -89 134 -127 122 -56 -18 43 -87 97 -147
165 -183 46 -26 55 -27 89 -17 59 17 75 43 74 116 -1 72 -11 102 -72 205 -60
101 -82 118 -102 80z"/>
<path d="M12693 4638 c-66 -26 -67 -39 -14 -130 21 -37 40 -70 42 -75 19 -44
105 -176 119 -183 67 -36 159 116 129 212 -35 109 -103 188 -163 188 -19 0
-40 2 -48 4 -7 3 -37 -5 -65 -16z m133 -60 c44 -30 84 -107 84 -160 0 -37 -33
-108 -50 -108 -7 0 -144 230 -149 249 -4 19 26 41 58 41 14 0 39 -10 57 -22z"/>
<path d="M12364 4481 c-16 -4 -54 -20 -82 -36 -60 -33 -64 -48 -31 -123 12
-26 29 -65 39 -87 47 -105 92 -194 103 -203 7 -6 19 -7 26 -3 10 6 6 24 -19
81 -33 80 -33 95 4 111 21 10 33 5 99 -40 72 -48 109 -61 121 -42 8 13 -15 36
-76 75 -32 20 -58 42 -58 50 0 7 9 25 20 39 46 58 33 144 -24 171 -36 17 -71
19 -122 7z m94 -67 c43 -30 16 -83 -64 -130 -52 -31 -61 -27 -94 43 -26 56
-18 69 57 89 64 17 75 17 101 -2z"/>
<path d="M11895 4256 c-10 -15 -12 -32 -6 -61 18 -82 31 -162 37 -225 7 -81
21 -127 39 -134 21 -8 36 27 33 72 -3 36 -1 38 54 67 l57 30 39 -38 c40 -39
69 -47 78 -22 10 26 -73 133 -199 256 -76 74 -110 89 -132 55z m127 -143 c21
-20 38 -43 38 -50 0 -16 -45 -46 -62 -41 -13 5 -37 96 -30 116 6 18 13 15 54
-25z"/>
<path d="M9401 3924 c-53 -27 -79 -60 -68 -89 12 -29 36 -28 72 4 48 42 80 49
113 24 56 -41 32 -109 -59 -172 -27 -18 -49 -37 -49 -41 0 -4 -19 -20 -42 -35
-97 -63 -130 -122 -90 -158 15 -14 129 -45 252 -67 72 -14 126 -12 140 5 22
26 -5 42 -83 49 -39 3 -103 15 -142 25 -105 28 -97 45 77 177 96 72 144 192
102 253 -39 55 -139 66 -223 25z"/>
<path d="M11000 3943 c-83 -32 -126 -97 -149 -223 -14 -78 4 -217 35 -271 40
-67 138 -98 205 -64 75 39 129 173 129 318 0 97 -19 155 -66 199 -45 42 -108
58 -154 41z m64 -92 c31 -35 56 -118 56 -189 0 -162 -84 -263 -157 -189 -72
71 -56 348 21 386 33 15 61 13 80 -8z"/>
<path d="M9965 3901 c-41 -25 -100 -81 -114 -109 -22 -41 -41 -131 -41 -191 0
-133 67 -222 178 -237 62 -8 103 14 148 78 48 69 54 92 54 208 0 115 -6 134
-63 212 -42 58 -107 73 -162 39z m101 -93 c39 -48 54 -90 54 -157 0 -71 -25
-134 -70 -180 -28 -27 -38 -32 -64 -27 -42 9 -75 32 -86 62 -26 67 3 220 55
297 34 49 72 51 111 5z"/>
<path d="M10495 3915 c-5 -2 -26 -6 -45 -9 -43 -7 -90 -46 -90 -75 0 -31 25
-36 65 -12 46 27 125 29 147 4 44 -52 32 -76 -128 -233 -128 -127 -151 -159
-134 -190 16 -29 50 -35 216 -35 159 0 184 6 184 46 0 23 5 22 -146 19 -165
-3 -172 12 -53 115 79 68 144 147 160 194 10 27 8 39 -14 84 -15 29 -39 60
-54 69 -29 17 -90 30 -108 23z"/>
<path d="M5308 9524 c-10 -9 15 -74 28 -74 22 0 26 37 7 59 -18 22 -26 25 -35
15z"/>
<path d="M15080 9501 c0 -6 5 -13 10 -16 6 -3 10 1 10 9 0 9 -4 16 -10 16 -5
0 -10 -4 -10 -9z"/>
<path d="M5037 9436 c-4 -10 -5 -21 -2 -24 9 -9 17 6 13 25 -3 17 -4 17 -11
-1z"/>
<path d="M5315 9430 c-3 -5 -1 -10 4 -10 6 0 11 5 11 10 0 6 -2 10 -4 10 -3 0
-8 -4 -11 -10z"/>
<path d="M5240 9295 c0 -2 9 -9 20 -15 16 -9 20 -8 20 5 0 8 -9 15 -20 15 -11
0 -20 -2 -20 -5z"/>
<path d="M5278 9261 c-11 -11 -14 -21 -8 -31 5 -8 4 -37 -1 -64 -9 -47 1 -91
15 -68 22 36 32 99 22 138 -10 38 -12 40 -28 25z"/>
<path d="M15209 9248 c-18 -33 -14 -156 5 -177 13 -14 15 -35 9 -113 -4 -69
-3 -97 6 -103 7 -4 15 -5 18 -2 12 13 15 91 4 129 -7 24 -13 98 -14 165 -1 68
-5 123 -9 123 -4 0 -13 -10 -19 -22z"/>
<path d="M15140 9071 c0 -6 5 -13 10 -16 6 -3 10 1 10 9 0 9 -4 16 -10 16 -5
0 -10 -4 -10 -9z"/>
<path d="M5408 9033 c7 -3 16 -2 19 1 4 3 -2 6 -13 5 -11 0 -14 -3 -6 -6z"/>
<path d="M5250 9015 c-14 -16 -6 -35 16 -35 8 0 14 10 14 25 0 28 -12 32 -30
10z"/>
<path d="M15066 9011 c-7 -10 22 -37 30 -28 9 8 -3 37 -15 37 -5 0 -12 -4 -15
-9z"/>
<path d="M5361 8984 c0 -11 3 -14 6 -6 3 7 2 16 -1 19 -3 4 -6 -2 -5 -13z"/>
<path d="M15130 8971 c0 -14 5 -18 20 -14 24 6 26 19 4 27 -23 9 -24 8 -24
-13z"/>
<path d="M5200 8943 c0 -7 7 -10 15 -7 8 4 22 1 30 -6 16 -13 35 -6 35 14 0 9
-13 13 -40 12 -25 0 -40 -5 -40 -13z"/>
<path d="M5015 8810 c-3 -5 -1 -10 4 -10 6 0 11 5 11 10 0 6 -2 10 -4 10 -3 0
-8 -4 -11 -10z"/>
<path d="M5150 8795 c0 -8 7 -15 16 -15 14 0 14 3 4 15 -7 8 -14 15 -16 15 -2
0 -4 -7 -4 -15z"/>
<path d="M5230 8711 c0 -17 4 -31 9 -31 7 0 9 -15 10 -90 1 -29 20 -70 34 -70
5 0 4 6 -2 14 -9 10 -9 21 0 42 14 33 12 76 -3 85 -6 4 -13 21 -17 39 -9 44
-31 52 -31 11z"/>
<path d="M15231 8669 c-6 -18 -11 -40 -11 -51 0 -10 -6 -27 -12 -38 -10 -16
-10 -22 -1 -28 7 -4 10 -19 8 -32 -2 -15 4 -35 15 -50 l18 -24 -4 68 c-4 69 8
126 33 157 19 22 16 29 -11 29 -18 0 -27 -8 -35 -31z"/>
<path d="M5298 8513 c-26 -7 -22 -18 7 -18 14 0 25 6 25 13 0 12 -3 13 -32 5z"/>
<path d="M5201 8484 c0 -11 3 -14 6 -6 3 7 2 16 -1 19 -3 4 -6 -2 -5 -13z"/>
<path d="M5257 8462 c-21 -23 -21 -42 -3 -68 15 -19 15 -19 30 1 17 22 17 76
0 82 -6 2 -18 -5 -27 -15z"/>
<path d="M15301 8464 c0 -11 3 -14 6 -6 3 7 2 16 -1 19 -3 4 -6 -2 -5 -13z"/>
<path d="M15173 8427 c55 -96 69 -105 75 -51 2 16 8 35 14 41 11 13 6 16 -40
26 -12 3 -20 1 -17 -3 3 -5 1 -11 -5 -15 -5 -3 -10 -2 -10 3 0 6 -7 12 -15 16
-13 5 -14 2 -2 -17z"/>
<path d="M15026 8211 c-3 -5 1 -11 9 -15 8 -3 15 -1 15 4 0 13 -18 22 -24 11z"/>
<path d="M5268 8128 c-2 -6 1 -47 7 -90 6 -43 10 -78 7 -78 -2 0 0 -6 6 -12 5
-7 15 -39 22 -70 6 -32 15 -58 20 -58 13 0 10 251 -3 275 -10 20 -37 44 -49
45 -3 0 -8 -5 -10 -12z"/>
<path d="M15180 8081 c-5 -11 -10 -35 -10 -53 0 -18 -7 -42 -15 -52 -11 -14
-12 -23 -4 -32 10 -13 8 -64 -5 -109 -7 -24 7 -50 23 -41 6 4 11 18 11 30 0
13 7 43 15 66 8 24 17 61 20 84 2 22 9 56 14 75 6 19 8 38 5 42 -10 16 -43 9
-54 -10z"/>
<path d="M5545 7880 c-3 -5 3 -10 14 -10 12 0 21 5 21 10 0 6 -6 10 -14 10 -8
0 -18 -4 -21 -10z"/>
<path d="M14893 7853 c4 -3 7 -11 7 -19 0 -19 16 -18 24 1 3 8 1 15 -3 15 -5
0 -15 2 -23 3 -7 2 -10 2 -5 0z"/>
<path d="M14800 7820 c0 -5 5 -10 10 -10 6 0 10 5 10 10 0 6 -4 10 -10 10 -5
0 -10 -4 -10 -10z"/>
<path d="M5320 7781 c0 -20 17 -37 27 -28 7 8 -7 47 -18 47 -5 0 -9 -9 -9 -19z"/>
<path d="M15241 7764 c0 -11 3 -14 6 -6 3 7 2 16 -1 19 -3 4 -6 -2 -5 -13z"/>
<path d="M15145 7729 c-10 -15 1 -23 20 -15 9 3 13 10 10 16 -8 13 -22 13 -30
-1z"/>
<path d="M5513 7705 c-3 -9 -3 -18 -1 -21 3 -3 8 4 11 16 6 23 -1 27 -10 5z"/>
<path d="M14975 7671 c-3 -5 -1 -12 5 -16 5 -3 10 1 10 9 0 18 -6 21 -15 7z"/>
<path d="M5030 7649 c-11 -7 -4 -8 25 -3 50 8 58 14 19 14 -16 0 -36 -5 -44
-11z"/>
<path d="M15450 7610 c0 -5 5 -10 10 -10 6 0 10 5 10 10 0 6 -4 10 -10 10 -5
0 -10 -4 -10 -10z"/>
<path d="M15368 7603 c7 -3 16 -2 19 1 4 3 -2 6 -13 5 -11 0 -14 -3 -6 -6z"/>
<path d="M5384 7550 c-15 -67 0 -151 40 -230 15 -29 25 -59 22 -67 -6 -14 24
-73 37 -73 5 0 5 15 1 33 -4 17 -8 50 -8 72 -1 22 -4 45 -7 50 -3 6 -5 36 -5
67 1 40 -3 58 -11 58 -7 0 -13 6 -13 13 0 8 -9 22 -19 32 -12 10 -21 33 -23
59 l-3 41 -11 -55z"/>
<path d="M15375 7560 c-4 -6 5 -10 20 -10 15 0 24 4 20 10 -3 6 -12 10 -20 10
-8 0 -17 -4 -20 -10z"/>
<path d="M15074 7473 c-29 -40 -43 -87 -50 -167 -4 -39 -11 -79 -16 -88 -4
-10 -6 -29 -2 -44 8 -32 18 -20 39 53 8 28 23 59 32 69 9 9 18 28 20 43 4 42
20 111 26 118 8 7 -11 43 -21 43 -5 0 -17 -12 -28 -27z"/>
<path d="M5730 7400 c-13 -8 -13 -10 2 -10 9 0 20 5 23 10 8 13 -5 13 -25 0z"/>
<path d="M5690 7369 c0 -5 5 -7 10 -4 6 3 10 8 10 11 0 2 -4 4 -10 4 -5 0 -10
-5 -10 -11z"/>
<path d="M5740 7349 c0 -5 5 -7 10 -4 6 3 10 8 10 11 0 2 -4 4 -10 4 -5 0 -10
-5 -10 -11z"/>
<path d="M14755 7349 c-10 -14 -1 -21 19 -13 9 3 13 10 10 15 -7 12 -21 11
-29 -2z"/>
<path d="M15152 7244 c-10 -12 -10 -14 2 -14 17 0 30 16 19 23 -5 3 -14 -1
-21 -9z"/>
<path d="M5095 7040 c3 -5 8 -10 11 -10 2 0 4 5 4 10 0 6 -5 10 -11 10 -5 0
-7 -4 -4 -10z"/>
<path d="M5133 7033 c9 -2 17 -11 17 -19 0 -14 12 -19 23 -8 13 13 -7 34 -32
33 -17 -1 -20 -3 -8 -6z"/>
<path d="M15218 7003 c-19 -5 -25 -23 -9 -23 17 0 41 12 41 21 0 9 -4 10 -32
2z"/>
<path d="M5554 6940 c11 -105 12 -109 34 -133 12 -13 25 -37 28 -55 8 -39 18
-47 34 -27 10 12 10 21 1 41 -6 14 -11 32 -11 41 0 25 -50 145 -72 173 l-20
25 6 -65z"/>
<path d="M15342 6989 c2 -6 8 -10 13 -10 5 0 11 4 13 10 2 6 -4 11 -13 11 -9
0 -15 -5 -13 -11z"/>
<path d="M15400 6980 c0 -5 5 -10 11 -10 5 0 7 5 4 10 -3 6 -8 10 -11 10 -2 0
-4 -4 -4 -10z"/>
<path d="M5410 6970 c0 -5 5 -10 11 -10 5 0 7 5 4 10 -3 6 -8 10 -11 10 -2 0
-4 -4 -4 -10z"/>
<path d="M14927 6946 c-6 -21 -13 -27 -27 -23 -13 3 -17 1 -13 -9 3 -8 0 -20
-5 -27 -6 -7 -14 -32 -18 -55 -4 -23 -11 -45 -15 -48 -5 -3 -9 -18 -9 -34 0
-16 -4 -32 -10 -35 -5 -3 -10 -17 -10 -31 0 -22 2 -23 20 -12 11 7 20 20 20
28 0 8 14 35 30 59 37 54 52 107 48 169 -3 43 -4 44 -11 18z"/>
<path d="M15265 6950 c-4 -6 5 -10 19 -10 14 0 26 5 26 10 0 6 -9 10 -19 10
-11 0 -23 -4 -26 -10z"/>
<path d="M15153 6943 c9 -2 25 -2 35 0 9 3 1 5 -18 5 -19 0 -27 -2 -17 -5z"/>
<path d="M15230 6900 c0 -5 7 -10 15 -10 8 0 15 5 15 10 0 6 -7 10 -15 10 -8
0 -15 -4 -15 -10z"/>
<path d="M14997 6726 c-3 -8 -3 -17 0 -20 9 -9 34 15 27 25 -8 13 -21 11 -27
-5z"/>
<path d="M5660 6696 c0 -8 5 -18 10 -21 6 -3 10 1 10 9 0 8 -4 18 -10 21 -5 3
-10 -1 -10 -9z"/>
<path d="M14980 6671 c0 -5 9 -7 20 -4 11 3 20 7 20 9 0 2 -9 4 -20 4 -11 0
-20 -4 -20 -9z"/>
<path d="M5775 6609 c-10 -15 3 -25 16 -12 7 7 7 13 1 17 -6 3 -14 1 -17 -5z"/>
<path d="M5720 6556 c0 -13 6 -27 13 -29 10 -4 10 -6 0 -6 -22 -2 -14 -35 18
-87 31 -48 46 -64 62 -64 13 0 -3 62 -23 91 -18 25 -17 73 1 85 5 3 9 10 9 17
0 8 -3 8 -12 -1 -17 -17 -38 -15 -38 3 0 8 -7 15 -15 15 -9 0 -15 -9 -15 -24z"/>
<path d="M14713 6531 c-7 -11 -10 -34 -6 -57 4 -27 2 -40 -9 -48 -18 -13 -28
-60 -17 -78 7 -10 12 -8 24 10 9 12 22 22 29 22 7 0 12 12 11 28 0 15 3 30 8
33 5 3 9 28 10 55 2 42 -1 49 -18 52 -11 1 -25 -6 -32 -17z"/>
<path d="M14777 6436 c-6 -15 1 -26 15 -26 11 0 10 27 -1 34 -5 3 -11 0 -14
-8z"/>
</g>
</svg>
